<?xml version="1.0" encoding="utf-8"?>
<!-- Generator: Adobe Illustrator 16.0.4, SVG Export Plug-In . SVG Version: 6.00 Build 0)  -->
<!DOCTYPE svg PUBLIC "-//W3C//DTD SVG 1.1//EN" "http://www.w3.org/Graphics/SVG/1.1/DTD/svg11.dtd">
<svg version="1.1" id="Layer_1" xmlns="http://www.w3.org/2000/svg" xmlns:xlink="http://www.w3.org/1999/xlink" x="0px" y="0px"
	 width="300px" height="300px" viewBox="0 0 300 300" enable-background="new 0 0 300 300" xml:space="preserve">
<path fill="none" stroke="#A5A4A4" stroke-width="10" stroke-miterlimit="10" d="M295,283.4c0,6.405-5.193,11.6-11.601,11.6H16.6
	C10.194,295,5,289.806,5,283.4V16.6C5,10.193,10.194,5,16.6,5h266.799C289.807,5,295,10.193,295,16.6V283.4z"/>
<circle fill="#A5A4A4" cx="150" cy="130" r="20.001"/>
<path fill="#A5A4A4" d="M131.25,67.5L119.812,80H100c-6.875,0-12.5,5.625-12.5,12.5v75c0,6.872,5.625,12.501,12.5,12.501h100.001
	c6.871,0,12.498-5.629,12.498-12.501v-75c0-6.875-5.627-12.5-12.498-12.5h-19.813L168.75,67.5H131.25z M150,161.249
	c-17.248,0-31.25-14.001-31.25-31.251c0-17.246,14.002-31.249,31.25-31.249c17.249,0,31.25,14.002,31.25,31.249
	C181.249,147.248,167.248,161.249,150,161.249z"/>
<path fill="none" d="M75,55h150v150H75V55z"/>
<rect x="32.023" y="203.733" fill="none" width="235.955" height="69.288"/>
<text transform="matrix(1 0 0 1 61.4609 228.0527)" fill="#A5A4A4" font-family="'OpenSans-Regular'" font-size="32">Lägg till bild</text>
</svg>
